<mxfile host="app.diagrams.net" modified="2023-04-22T14:16:24.658Z" agent="Mozilla/5.0 (Windows NT 10.0; Win64; x64) AppleWebKit/537.36 (KHTML, like Gecko) Chrome/111.0.0.0 Safari/537.36 OPR/97.0.0.0" etag="68r6diKxUiQlTNfXE9rX" version="21.2.1" type="github">
  <diagram name="Page-1" id="ad52d381-51e7-2e0d-a935-2d0ddd2fd229">
    <mxGraphModel dx="1056" dy="600" grid="1" gridSize="10" guides="1" tooltips="1" connect="1" arrows="1" fold="1" page="1" pageScale="1" pageWidth="1100" pageHeight="850" background="none" math="0" shadow="0">
      <root>
        <mxCell id="0" />
        <mxCell id="1" parent="0" />
        <mxCell id="ctKegfENrpN5hpneZ7Hi-5" value="" style="edgeStyle=orthogonalEdgeStyle;rounded=0;orthogonalLoop=1;jettySize=auto;html=1;" edge="1" parent="1" source="ctKegfENrpN5hpneZ7Hi-3" target="ctKegfENrpN5hpneZ7Hi-4">
          <mxGeometry relative="1" as="geometry" />
        </mxCell>
        <mxCell id="ctKegfENrpN5hpneZ7Hi-11" style="edgeStyle=orthogonalEdgeStyle;curved=1;rounded=0;orthogonalLoop=1;jettySize=auto;html=1;entryX=0.5;entryY=0;entryDx=0;entryDy=0;" edge="1" parent="1" source="ctKegfENrpN5hpneZ7Hi-3" target="ctKegfENrpN5hpneZ7Hi-8">
          <mxGeometry relative="1" as="geometry">
            <Array as="points">
              <mxPoint x="550" y="60" />
              <mxPoint x="430" y="60" />
            </Array>
          </mxGeometry>
        </mxCell>
        <mxCell id="ctKegfENrpN5hpneZ7Hi-13" style="edgeStyle=orthogonalEdgeStyle;curved=1;rounded=0;orthogonalLoop=1;jettySize=auto;html=1;entryX=0.5;entryY=0;entryDx=0;entryDy=0;" edge="1" parent="1" source="ctKegfENrpN5hpneZ7Hi-3" target="ctKegfENrpN5hpneZ7Hi-7">
          <mxGeometry relative="1" as="geometry">
            <Array as="points">
              <mxPoint x="550" y="60" />
              <mxPoint x="670" y="60" />
            </Array>
          </mxGeometry>
        </mxCell>
        <mxCell id="ctKegfENrpN5hpneZ7Hi-3" value="Statistics" style="ellipse;whiteSpace=wrap;html=1;fillColor=#fff2cc;strokeColor=#d6b656;" vertex="1" parent="1">
          <mxGeometry x="490" y="10" width="120" height="40" as="geometry" />
        </mxCell>
        <mxCell id="ctKegfENrpN5hpneZ7Hi-4" value="is a set of methods with the purpose of finding, analyzing, and presenting quantitative data." style="rounded=0;whiteSpace=wrap;html=1;" vertex="1" parent="1">
          <mxGeometry x="650" y="15" width="270" height="30" as="geometry" />
        </mxCell>
        <mxCell id="ctKegfENrpN5hpneZ7Hi-18" style="edgeStyle=orthogonalEdgeStyle;curved=1;rounded=0;orthogonalLoop=1;jettySize=auto;html=1;" edge="1" parent="1" source="ctKegfENrpN5hpneZ7Hi-7" target="ctKegfENrpN5hpneZ7Hi-16">
          <mxGeometry relative="1" as="geometry" />
        </mxCell>
        <mxCell id="ctKegfENrpN5hpneZ7Hi-7" value="Inferential" style="ellipse;whiteSpace=wrap;html=1;fillColor=#fff2cc;strokeColor=#d6b656;" vertex="1" parent="1">
          <mxGeometry x="610" y="80" width="120" height="40" as="geometry" />
        </mxCell>
        <mxCell id="ctKegfENrpN5hpneZ7Hi-17" style="edgeStyle=orthogonalEdgeStyle;curved=1;rounded=0;orthogonalLoop=1;jettySize=auto;html=1;entryX=1;entryY=0.5;entryDx=0;entryDy=0;" edge="1" parent="1" source="ctKegfENrpN5hpneZ7Hi-8" target="ctKegfENrpN5hpneZ7Hi-15">
          <mxGeometry relative="1" as="geometry" />
        </mxCell>
        <mxCell id="ctKegfENrpN5hpneZ7Hi-8" value="Descriptive" style="ellipse;whiteSpace=wrap;html=1;fillColor=#fff2cc;strokeColor=#d6b656;" vertex="1" parent="1">
          <mxGeometry x="370" y="80" width="120" height="40" as="geometry" />
        </mxCell>
        <mxCell id="ctKegfENrpN5hpneZ7Hi-15" value="area of statistics&amp;nbsp;" style="rounded=0;whiteSpace=wrap;html=1;" vertex="1" parent="1">
          <mxGeometry x="50" y="85" width="270" height="30" as="geometry" />
        </mxCell>
        <mxCell id="ctKegfENrpN5hpneZ7Hi-16" value="is a set of methods with the purpose of finding, analyzing, and presenting quantitative data." style="rounded=0;whiteSpace=wrap;html=1;" vertex="1" parent="1">
          <mxGeometry x="780" y="85" width="270" height="30" as="geometry" />
        </mxCell>
      </root>
    </mxGraphModel>
  </diagram>
</mxfile>
